<svg width="34" height="34" viewBox="0 0 34 34" fill="none" xmlns="http://www.w3.org/2000/svg">
<mask id="mask0_39_35" style="mask-type:alpha" maskUnits="userSpaceOnUse" x="0" y="0" width="34" height="34">
<rect width="34" height="34" fill="#D9D9D9"/>
</mask>
<g mask="url(#mask0_39_35)">
<path d="M17.1667 31.3333C15.2069 31.3333 13.3653 30.9615 11.6417 30.2177C9.91806 29.474 8.41875 28.4646 7.14375 27.1896C5.86875 25.9146 4.85938 24.4153 4.11563 22.6917C3.37188 20.9681 3 19.1264 3 17.1667C3 15.2069 3.37188 13.3653 4.11563 11.6417C4.85938 9.91806 5.86875 8.41875 7.14375 7.14375C8.41875 5.86875 9.91806 4.85938 11.6417 4.11563C13.3653 3.37188 15.2069 3 17.1667 3C19.1264 3 20.9681 3.37188 22.6917 4.11563C24.4153 4.85938 25.9146 5.86875 27.1896 7.14375C28.4646 8.41875 29.474 9.91806 30.2177 11.6417C30.9615 13.3653 31.3333 15.2069 31.3333 17.1667V19.2208C31.3333 20.6139 30.8552 21.8003 29.899 22.7802C28.9427 23.7601 27.7681 24.25 26.375 24.25C25.5486 24.25 24.7694 24.0729 24.0375 23.7188C23.3056 23.3646 22.6917 22.8569 22.1958 22.1958C21.5111 22.8806 20.7378 23.3941 19.876 23.7365C19.0142 24.0788 18.1111 24.25 17.1667 24.25C15.2069 24.25 13.5365 23.5594 12.1552 22.1781C10.774 20.7969 10.0833 19.1264 10.0833 17.1667C10.0833 15.2069 10.774 13.5365 12.1552 12.1552C13.5365 10.774 15.2069 10.0833 17.1667 10.0833C19.1264 10.0833 20.7969 10.774 22.1781 12.1552C23.5594 13.5365 24.25 15.2069 24.25 17.1667V19.2208C24.25 19.8347 24.4507 20.3542 24.8521 20.7792C25.2535 21.2042 25.7611 21.4167 26.375 21.4167C26.9889 21.4167 27.4965 21.2042 27.8979 20.7792C28.2993 20.3542 28.5 19.8347 28.5 19.2208V17.1667C28.5 14.0028 27.4021 11.3229 25.2063 9.12708C23.0104 6.93125 20.3306 5.83333 17.1667 5.83333C14.0028 5.83333 11.3229 6.93125 9.12708 9.12708C6.93125 11.3229 5.83333 14.0028 5.83333 17.1667C5.83333 20.3306 6.93125 23.0104 9.12708 25.2063C11.3229 27.4021 14.0028 28.5 17.1667 28.5H24.25V31.3333H17.1667ZM17.1667 21.4167C18.3472 21.4167 19.3507 21.0035 20.1771 20.1771C21.0035 19.3507 21.4167 18.3472 21.4167 17.1667C21.4167 15.9861 21.0035 14.9826 20.1771 14.1563C19.3507 13.3299 18.3472 12.9167 17.1667 12.9167C15.9861 12.9167 14.9826 13.3299 14.1563 14.1563C13.3299 14.9826 12.9167 15.9861 12.9167 17.1667C12.9167 18.3472 13.3299 19.3507 14.1563 20.1771C14.9826 21.0035 15.9861 21.4167 17.1667 21.4167Z" fill="#525252"/>
</g>
</svg>
