<svg width="40" height="40" viewBox="0 0 40 40" fill="none" xmlns="http://www.w3.org/2000/svg">
<g clip-path="url(#clip0_24_92)">
<rect width="40" height="40" fill="#F0F0F0"/>
<path d="M19.6667 38.036C17.3611 38.036 15.1944 37.5631 13.1667 36.6171C11.1389 35.6712 9.375 34.3874 7.875 32.7658C6.375 31.1441 5.1875 29.2372 4.3125 27.045C3.4375 24.8529 3 22.5105 3 20.018C3 17.5255 3.4375 15.1832 4.3125 12.991C5.1875 10.7988 6.375 8.89189 7.875 7.27027C9.375 5.64865 11.1389 4.36487 13.1667 3.41892C15.1944 2.47297 17.3611 2 19.6667 2C21.9722 2 24.1389 2.47297 26.1667 3.41892C28.1944 4.36487 29.9583 5.64865 31.4583 7.27027C32.9583 8.89189 34.1458 10.7988 35.0208 12.991C35.8958 15.1832 36.3333 17.5255 36.3333 20.018V22.6306C36.3333 24.4024 35.7708 25.9114 34.6458 27.1577C33.5208 28.4039 32.1389 29.027 30.5 29.027C29.5278 29.027 28.6111 28.8018 27.75 28.3514C26.8889 27.9009 26.1667 27.2553 25.5833 26.4144C24.7778 27.2853 23.8681 27.9384 22.8542 28.3739C21.8403 28.8093 20.7778 29.027 19.6667 29.027C17.3611 29.027 15.3958 28.1487 13.7708 26.3919C12.1458 24.6351 11.3333 22.5105 11.3333 20.018C11.3333 17.5255 12.1458 15.4009 13.7708 13.6441C15.3958 11.8874 17.3611 11.009 19.6667 11.009C21.9722 11.009 23.9375 11.8874 25.5625 13.6441C27.1875 15.4009 28 17.5255 28 20.018V22.6306C28 23.4114 28.2361 24.0721 28.7083 24.6126C29.1806 25.1532 29.7778 25.4234 30.5 25.4234C31.2222 25.4234 31.8194 25.1532 32.2917 24.6126C32.7639 24.0721 33 23.4114 33 22.6306V20.018C33 15.994 31.7083 12.5856 29.125 9.79279C26.5417 7 23.3889 5.6036 19.6667 5.6036C15.9444 5.6036 12.7917 7 10.2083 9.79279C7.625 12.5856 6.33333 15.994 6.33333 20.018C6.33333 24.042 7.625 27.4505 10.2083 30.2432C12.7917 33.036 15.9444 34.4324 19.6667 34.4324H28V38.036H19.6667ZM19.6667 25.4234C21.0556 25.4234 22.2361 24.8979 23.2083 23.8468C24.1806 22.7958 24.6667 21.5195 24.6667 20.018C24.6667 18.5165 24.1806 17.2402 23.2083 16.1892C22.2361 15.1381 21.0556 14.6126 19.6667 14.6126C18.2778 14.6126 17.0972 15.1381 16.125 16.1892C15.1528 17.2402 14.6667 18.5165 14.6667 20.018C14.6667 21.5195 15.1528 22.7958 16.125 23.8468C17.0972 24.8979 18.2778 25.4234 19.6667 25.4234Z" fill="#525252"/>
</g>
<defs>
<clipPath id="clip0_24_92">
<rect width="40" height="40" fill="white"/>
</clipPath>
</defs>
</svg>
