<svg width="244" height="39" viewBox="0 0 244 39" fill="none" xmlns="http://www.w3.org/2000/svg">
<path d="M7.38068 0.477273V35.3864H0V0.477273H7.38068Z" fill="#141414"/>
<path d="M13.4531 35.3864V0.477273H36.9759V6.5625H20.8338V14.8807H35.7656V20.9659H20.8338V29.3011H37.044V35.3864H13.4531Z" fill="#141414"/>
<path d="M56.0199 23.25H62.2926L65.446 27.3068L68.5483 30.9205L74.3949 38.25H67.5085L63.4858 33.3068L61.4233 30.375L56.0199 23.25ZM74.9233 17.9318C74.9233 21.7386 74.2017 24.9773 72.7585 27.6477C71.3267 30.3182 69.3722 32.358 66.8949 33.767C64.429 35.1648 61.6563 35.8636 58.5767 35.8636C55.4744 35.8636 52.6903 35.1591 50.2244 33.75C47.7585 32.3409 45.8097 30.3011 44.3778 27.6307C42.946 24.9602 42.2301 21.7273 42.2301 17.9318C42.2301 14.125 42.946 10.8864 44.3778 8.21591C45.8097 5.54545 47.7585 3.51136 50.2244 2.11364C52.6903 0.704546 55.4744 0 58.5767 0C61.6563 0 64.429 0.704546 66.8949 2.11364C69.3722 3.51136 71.3267 5.54545 72.7585 8.21591C74.2017 10.8864 74.9233 14.125 74.9233 17.9318ZM67.4403 17.9318C67.4403 15.4659 67.071 13.3864 66.3324 11.6932C65.6051 10 64.5767 8.71591 63.2472 7.84091C61.9176 6.96591 60.3608 6.52841 58.5767 6.52841C56.7926 6.52841 55.2358 6.96591 53.9062 7.84091C52.5767 8.71591 51.5426 10 50.804 11.6932C50.0767 13.3864 49.7131 15.4659 49.7131 17.9318C49.7131 20.3977 50.0767 22.4773 50.804 24.1705C51.5426 25.8636 52.5767 27.1477 53.9062 28.0227C55.2358 28.8977 56.7926 29.3352 58.5767 29.3352C60.3608 29.3352 61.9176 28.8977 63.2472 28.0227C64.5767 27.1477 65.6051 25.8636 66.3324 24.1705C67.071 22.4773 67.4403 20.3977 67.4403 17.9318Z" fill="#141414"/>
<path d="M90.4886 35.3864V12.1136H99.8068C101.519 12.1136 102.947 12.3674 104.091 12.875C105.235 13.3826 106.095 14.0871 106.67 14.9886C107.246 15.8826 107.534 16.9129 107.534 18.0795C107.534 18.9886 107.352 19.7879 106.989 20.4773C106.625 21.1591 106.125 21.7197 105.489 22.1591C104.86 22.5909 104.14 22.8977 103.33 23.0795V23.3068C104.216 23.3447 105.045 23.5947 105.818 24.0568C106.598 24.5189 107.231 25.1667 107.716 26C108.201 26.8258 108.443 27.8106 108.443 28.9545C108.443 30.1894 108.136 31.2917 107.523 32.2614C106.917 33.2235 106.019 33.9848 104.83 34.5455C103.64 35.1061 102.174 35.3864 100.432 35.3864H90.4886ZM95.4091 31.3636H99.4205C100.792 31.3636 101.792 31.1023 102.42 30.5795C103.049 30.0492 103.364 29.3447 103.364 28.4659C103.364 27.822 103.208 27.2538 102.898 26.7614C102.587 26.2689 102.144 25.8826 101.568 25.6023C101 25.322 100.322 25.1818 99.5341 25.1818H95.4091V31.3636ZM95.4091 21.8523H99.0568C99.7311 21.8523 100.33 21.7348 100.852 21.5C101.383 21.2576 101.799 20.9167 102.102 20.4773C102.413 20.0379 102.568 19.5114 102.568 18.8977C102.568 18.0568 102.269 17.3788 101.67 16.8636C101.08 16.3485 100.239 16.0909 99.1477 16.0909H95.4091V21.8523Z" fill="#E69616"/>
<path d="M116.531 35.7159C115.418 35.7159 114.425 35.5227 113.554 35.1364C112.683 34.7424 111.993 34.1629 111.486 33.3977C110.986 32.625 110.736 31.6629 110.736 30.5114C110.736 29.5417 110.914 28.7273 111.27 28.0682C111.626 27.4091 112.111 26.8788 112.724 26.4773C113.338 26.0758 114.035 25.7727 114.815 25.5682C115.603 25.3636 116.429 25.2197 117.293 25.1364C118.308 25.0303 119.126 24.9318 119.747 24.8409C120.368 24.7424 120.819 24.5985 121.099 24.4091C121.38 24.2197 121.52 23.9394 121.52 23.5682V23.5C121.52 22.7803 121.293 22.2235 120.838 21.8295C120.391 21.4356 119.755 21.2386 118.929 21.2386C118.058 21.2386 117.365 21.4318 116.849 21.8182C116.334 22.197 115.993 22.6742 115.827 23.25L111.349 22.8864C111.577 21.8258 112.024 20.9091 112.69 20.1364C113.357 19.3561 114.217 18.7576 115.27 18.3409C116.33 17.9167 117.558 17.7045 118.952 17.7045C119.921 17.7045 120.849 17.8182 121.736 18.0455C122.63 18.2727 123.421 18.625 124.111 19.1023C124.808 19.5795 125.357 20.1932 125.759 20.9432C126.16 21.6856 126.361 22.5758 126.361 23.6136V35.3864H121.77V32.9659H121.634C121.353 33.5114 120.978 33.9924 120.509 34.4091C120.039 34.8182 119.474 35.1402 118.815 35.375C118.156 35.6023 117.395 35.7159 116.531 35.7159ZM117.918 32.375C118.63 32.375 119.259 32.2348 119.804 31.9545C120.349 31.6667 120.777 31.2803 121.088 30.7955C121.399 30.3106 121.554 29.7614 121.554 29.1477V27.2955C121.402 27.3939 121.194 27.4849 120.929 27.5682C120.671 27.6439 120.38 27.7159 120.054 27.7841C119.728 27.8447 119.402 27.9015 119.077 27.9545C118.751 28 118.455 28.0417 118.19 28.0795C117.622 28.1629 117.126 28.2955 116.702 28.4773C116.277 28.6591 115.948 28.9053 115.713 29.2159C115.478 29.5189 115.361 29.8977 115.361 30.3523C115.361 31.0114 115.599 31.5152 116.077 31.8636C116.562 32.2045 117.175 32.375 117.918 32.375Z" fill="#E69616"/>
<path d="M138.003 35.7273C136.215 35.7273 134.677 35.3485 133.389 34.5909C132.109 33.8258 131.124 32.7652 130.435 31.4091C129.753 30.053 129.412 28.4924 129.412 26.7273C129.412 24.9394 129.757 23.3712 130.446 22.0227C131.143 20.6667 132.132 19.6098 133.412 18.8523C134.692 18.0871 136.215 17.7045 137.98 17.7045C139.503 17.7045 140.836 17.9811 141.98 18.5341C143.124 19.0871 144.029 19.8636 144.696 20.8636C145.363 21.8636 145.73 23.0379 145.798 24.3864H141.23C141.101 23.5152 140.76 22.8144 140.207 22.2841C139.662 21.7462 138.946 21.4773 138.06 21.4773C137.31 21.4773 136.654 21.6818 136.094 22.0909C135.541 22.4924 135.109 23.0795 134.798 23.8523C134.488 24.625 134.332 25.5606 134.332 26.6591C134.332 27.7727 134.484 28.7197 134.787 29.5C135.098 30.2803 135.533 30.875 136.094 31.2841C136.654 31.6932 137.31 31.8977 138.06 31.8977C138.613 31.8977 139.109 31.7841 139.548 31.5568C139.995 31.3295 140.363 31 140.651 30.5682C140.946 30.1288 141.139 29.6023 141.23 28.9886H145.798C145.723 30.322 145.359 31.4962 144.707 32.5114C144.063 33.5189 143.173 34.3068 142.037 34.875C140.901 35.4432 139.556 35.7273 138.003 35.7273Z" fill="#E69616"/>
<path d="M153.875 35.7159C152.761 35.7159 151.769 35.5227 150.898 35.1364C150.027 34.7424 149.337 34.1629 148.83 33.3977C148.33 32.625 148.08 31.6629 148.08 30.5114C148.08 29.5417 148.258 28.7273 148.614 28.0682C148.97 27.4091 149.455 26.8788 150.068 26.4773C150.682 26.0758 151.379 25.7727 152.159 25.5682C152.947 25.3636 153.773 25.2197 154.636 25.1364C155.652 25.0303 156.47 24.9318 157.091 24.8409C157.712 24.7424 158.163 24.5985 158.443 24.4091C158.723 24.2197 158.864 23.9394 158.864 23.5682V23.5C158.864 22.7803 158.636 22.2235 158.182 21.8295C157.735 21.4356 157.098 21.2386 156.273 21.2386C155.402 21.2386 154.708 21.4318 154.193 21.8182C153.678 22.197 153.337 22.6742 153.17 23.25L148.693 22.8864C148.92 21.8258 149.367 20.9091 150.034 20.1364C150.701 19.3561 151.561 18.7576 152.614 18.3409C153.674 17.9167 154.902 17.7045 156.295 17.7045C157.265 17.7045 158.193 17.8182 159.08 18.0455C159.973 18.2727 160.765 18.625 161.455 19.1023C162.152 19.5795 162.701 20.1932 163.102 20.9432C163.504 21.6856 163.705 22.5758 163.705 23.6136V35.3864H159.114V32.9659H158.977C158.697 33.5114 158.322 33.9924 157.852 34.4091C157.383 34.8182 156.818 35.1402 156.159 35.375C155.5 35.6023 154.739 35.7159 153.875 35.7159ZM155.261 32.375C155.973 32.375 156.602 32.2348 157.148 31.9545C157.693 31.6667 158.121 31.2803 158.432 30.7955C158.742 30.3106 158.898 29.7614 158.898 29.1477V27.2955C158.746 27.3939 158.538 27.4849 158.273 27.5682C158.015 27.6439 157.723 27.7159 157.398 27.7841C157.072 27.8447 156.746 27.9015 156.42 27.9545C156.095 28 155.799 28.0417 155.534 28.0795C154.966 28.1629 154.47 28.2955 154.045 28.4773C153.621 28.6591 153.292 28.9053 153.057 29.2159C152.822 29.5189 152.705 29.8977 152.705 30.3523C152.705 31.0114 152.943 31.5152 153.42 31.8636C153.905 32.2045 154.519 32.375 155.261 32.375Z" fill="#E69616"/>
<path d="M175.347 35.7273C173.559 35.7273 172.021 35.3485 170.733 34.5909C169.453 33.8258 168.468 32.7652 167.778 31.4091C167.097 30.053 166.756 28.4924 166.756 26.7273C166.756 24.9394 167.1 23.3712 167.79 22.0227C168.487 20.6667 169.475 19.6098 170.756 18.8523C172.036 18.0871 173.559 17.7045 175.324 17.7045C176.847 17.7045 178.18 17.9811 179.324 18.5341C180.468 19.0871 181.373 19.8636 182.04 20.8636C182.706 21.8636 183.074 23.0379 183.142 24.3864H178.574C178.445 23.5152 178.104 22.8144 177.551 22.2841C177.006 21.7462 176.29 21.4773 175.403 21.4773C174.653 21.4773 173.998 21.6818 173.438 22.0909C172.884 22.4924 172.453 23.0795 172.142 23.8523C171.831 24.625 171.676 25.5606 171.676 26.6591C171.676 27.7727 171.828 28.7197 172.131 29.5C172.441 30.2803 172.877 30.875 173.438 31.2841C173.998 31.6932 174.653 31.8977 175.403 31.8977C175.956 31.8977 176.453 31.7841 176.892 31.5568C177.339 31.3295 177.706 31 177.994 30.5682C178.29 30.1288 178.483 29.6023 178.574 28.9886H183.142C183.066 30.322 182.703 31.4962 182.051 32.5114C181.407 33.5189 180.517 34.3068 179.381 34.875C178.244 35.4432 176.9 35.7273 175.347 35.7273Z" fill="#E69616"/>
<path d="M191.082 25.2955V35.3864H186.241V12.1136H190.946V21.0114H191.151C191.545 19.9811 192.181 19.1742 193.06 18.5909C193.938 18 195.041 17.7045 196.366 17.7045C197.579 17.7045 198.635 17.9697 199.537 18.5C200.446 19.0227 201.151 19.7765 201.651 20.7614C202.158 21.7386 202.408 22.9091 202.401 24.2727V35.3864H197.56V25.1364C197.567 24.0606 197.295 23.2235 196.741 22.625C196.196 22.0265 195.431 21.7273 194.446 21.7273C193.787 21.7273 193.204 21.8674 192.696 22.1477C192.196 22.428 191.802 22.8371 191.514 23.375C191.234 23.9053 191.09 24.5455 191.082 25.2955Z" fill="#E69616"/>
<path d="M214.165 35.7273C212.369 35.7273 210.824 35.3636 209.528 34.6364C208.241 33.9015 207.248 32.8636 206.551 31.5227C205.854 30.1742 205.506 28.5795 205.506 26.7386C205.506 24.9432 205.854 23.3674 206.551 22.0114C207.248 20.6553 208.229 19.5985 209.494 18.8409C210.767 18.0833 212.259 17.7045 213.972 17.7045C215.123 17.7045 216.195 17.8902 217.188 18.2614C218.188 18.625 219.059 19.1742 219.801 19.9091C220.551 20.6439 221.134 21.5682 221.551 22.6818C221.968 23.7879 222.176 25.0833 222.176 26.5682V27.8977H207.438V24.8977H217.619C217.619 24.2008 217.468 23.5833 217.165 23.0455C216.862 22.5076 216.441 22.0871 215.903 21.7841C215.373 21.4735 214.756 21.3182 214.051 21.3182C213.316 21.3182 212.665 21.4886 212.097 21.8295C211.536 22.1629 211.097 22.6136 210.778 23.1818C210.46 23.7424 210.297 24.3674 210.29 25.0568V27.9091C210.29 28.7727 210.449 29.5189 210.767 30.1477C211.093 30.7765 211.551 31.2614 212.142 31.6023C212.733 31.9432 213.434 32.1136 214.244 32.1136C214.782 32.1136 215.275 32.0379 215.722 31.8864C216.169 31.7348 216.551 31.5076 216.869 31.2045C217.188 30.9015 217.43 30.5303 217.597 30.0909L222.074 30.3864C221.847 31.4621 221.381 32.4015 220.676 33.2045C219.979 34 219.078 34.6212 217.972 35.0682C216.873 35.5076 215.604 35.7273 214.165 35.7273Z" fill="#E69616"/>
<path d="M225.335 35.3864V17.9318H230.028V20.9773H230.21C230.528 19.8939 231.062 19.0758 231.812 18.5227C232.562 17.9621 233.426 17.6818 234.403 17.6818C234.646 17.6818 234.907 17.697 235.188 17.7273C235.468 17.7576 235.714 17.7992 235.926 17.8523V22.1477C235.699 22.0795 235.384 22.0189 234.983 21.9659C234.581 21.9129 234.214 21.8864 233.881 21.8864C233.169 21.8864 232.532 22.0417 231.972 22.3523C231.419 22.6553 230.979 23.0795 230.653 23.625C230.335 24.1705 230.176 24.7992 230.176 25.5114V35.3864H225.335Z" fill="#E69616"/>
<path d="M238.429 35.3864V17.9318H243.27V35.3864H238.429ZM240.861 15.6818C240.141 15.6818 239.524 15.4432 239.009 14.9659C238.501 14.4811 238.247 13.9015 238.247 13.2273C238.247 12.5606 238.501 11.9886 239.009 11.5114C239.524 11.0265 240.141 10.7841 240.861 10.7841C241.58 10.7841 242.194 11.0265 242.702 11.5114C243.217 11.9886 243.474 12.5606 243.474 13.2273C243.474 13.9015 243.217 14.4811 242.702 14.9659C242.194 15.4432 241.58 15.6818 240.861 15.6818Z" fill="#E69616"/>
</svg>
