<svg width="263" height="39" viewBox="0 0 263 39" fill="none" xmlns="http://www.w3.org/2000/svg">
<path d="M7.38068 0.477273V35.3864H0V0.477273H7.38068Z" fill="#141414"/>
<path d="M13.4531 35.3864V0.477273H36.9759V6.5625H20.8338V14.8807H35.7656V20.9659H20.8338V29.3011H37.044V35.3864H13.4531Z" fill="#141414"/>
<path d="M56.0199 23.25H62.2926L65.446 27.3068L68.5483 30.9205L74.3949 38.25H67.5085L63.4858 33.3068L61.4233 30.375L56.0199 23.25ZM74.9233 17.9318C74.9233 21.7386 74.2017 24.9773 72.7585 27.6477C71.3267 30.3182 69.3722 32.358 66.8949 33.767C64.429 35.1648 61.6563 35.8636 58.5767 35.8636C55.4744 35.8636 52.6903 35.1591 50.2244 33.75C47.7585 32.3409 45.8097 30.3011 44.3778 27.6307C42.946 24.9602 42.2301 21.7273 42.2301 17.9318C42.2301 14.125 42.946 10.8864 44.3778 8.21591C45.8097 5.54545 47.7585 3.51136 50.2244 2.11364C52.6903 0.704546 55.4744 0 58.5767 0C61.6563 0 64.429 0.704546 66.8949 2.11364C69.3722 3.51136 71.3267 5.54545 72.7585 8.21591C74.2017 10.8864 74.9233 14.125 74.9233 17.9318ZM67.4403 17.9318C67.4403 15.4659 67.071 13.3864 66.3324 11.6932C65.6051 10 64.5767 8.71591 63.2472 7.84091C61.9176 6.96591 60.3608 6.52841 58.5767 6.52841C56.7926 6.52841 55.2358 6.96591 53.9062 7.84091C52.5767 8.71591 51.5426 10 50.804 11.6932C50.0767 13.3864 49.7131 15.4659 49.7131 17.9318C49.7131 20.3977 50.0767 22.4773 50.804 24.1705C51.5426 25.8636 52.5767 27.1477 53.9062 28.0227C55.2358 28.8977 56.7926 29.3352 58.5767 29.3352C60.3608 29.3352 61.9176 28.8977 63.2472 28.0227C64.5767 27.1477 65.6051 25.8636 66.3324 24.1705C67.071 22.4773 67.4403 20.3977 67.4403 17.9318Z" fill="#141414"/>
<path d="M90.7415 35.3864V9.20455H101.224C103.151 9.20455 104.757 9.49006 106.044 10.0611C107.331 10.6321 108.298 11.4247 108.946 12.4389C109.594 13.4446 109.918 14.6037 109.918 15.9162C109.918 16.9389 109.713 17.8381 109.304 18.6136C108.895 19.3807 108.332 20.0114 107.616 20.5057C106.909 20.9915 106.099 21.3366 105.188 21.5412V21.7969C106.185 21.8395 107.118 22.1207 107.987 22.6406C108.865 23.1605 109.577 23.8892 110.122 24.8267C110.668 25.7557 110.94 26.8636 110.94 28.1506C110.94 29.5398 110.595 30.7798 109.905 31.8707C109.223 32.9531 108.213 33.8097 106.875 34.4403C105.537 35.071 103.888 35.3864 101.928 35.3864H90.7415ZM96.277 30.8608H100.79C102.332 30.8608 103.457 30.5668 104.165 29.9787C104.872 29.3821 105.226 28.5895 105.226 27.6009C105.226 26.8764 105.051 26.2372 104.702 25.6832C104.352 25.1293 103.854 24.6946 103.206 24.3793C102.567 24.0639 101.804 23.9062 100.918 23.9062H96.277V30.8608ZM96.277 20.1605H100.381C101.139 20.1605 101.812 20.0284 102.401 19.7642C102.997 19.4915 103.466 19.108 103.807 18.6136C104.156 18.1193 104.331 17.527 104.331 16.8366C104.331 15.8906 103.994 15.1278 103.321 14.5483C102.656 13.9688 101.71 13.679 100.483 13.679H96.277V20.1605Z" fill="#E69616"/>
<path d="M120.039 35.7571C118.787 35.7571 117.67 35.5398 116.69 35.1051C115.71 34.6619 114.934 34.0099 114.363 33.1492C113.801 32.2798 113.52 31.1974 113.52 29.902C113.52 28.8111 113.72 27.8949 114.12 27.1534C114.521 26.4119 115.066 25.8153 115.757 25.3636C116.447 24.9119 117.231 24.571 118.109 24.3409C118.995 24.1108 119.924 23.9489 120.896 23.8551C122.038 23.7358 122.958 23.625 123.657 23.5227C124.356 23.4119 124.863 23.25 125.179 23.0369C125.494 22.8239 125.652 22.5085 125.652 22.0909V22.0142C125.652 21.2045 125.396 20.5781 124.885 20.1349C124.382 19.6918 123.666 19.4702 122.737 19.4702C121.757 19.4702 120.977 19.6875 120.397 20.1222C119.818 20.5483 119.434 21.0852 119.247 21.733L114.21 21.3239C114.466 20.1307 114.968 19.0994 115.718 18.2301C116.468 17.3523 117.436 16.679 118.62 16.2102C119.814 15.733 121.194 15.4943 122.762 15.4943C123.853 15.4943 124.897 15.6222 125.895 15.8778C126.9 16.1335 127.791 16.5298 128.566 17.0668C129.35 17.6037 129.968 18.294 130.42 19.1378C130.872 19.973 131.098 20.9744 131.098 22.142V35.3864H125.933V32.6634H125.779C125.464 33.277 125.042 33.8182 124.514 34.2869C123.985 34.7472 123.35 35.1094 122.609 35.3736C121.868 35.6293 121.011 35.7571 120.039 35.7571ZM121.599 31.9986C122.4 31.9986 123.108 31.8409 123.721 31.5256C124.335 31.2017 124.816 30.767 125.166 30.2216C125.515 29.6761 125.69 29.0582 125.69 28.3679V26.2841C125.52 26.3949 125.285 26.4972 124.987 26.5909C124.697 26.6761 124.369 26.7571 124.002 26.8338C123.636 26.902 123.27 26.9659 122.903 27.0256C122.537 27.0767 122.204 27.1236 121.906 27.1662C121.267 27.2599 120.708 27.4091 120.231 27.6136C119.754 27.8182 119.383 28.0952 119.119 28.4446C118.855 28.7855 118.723 29.2116 118.723 29.723C118.723 30.4645 118.991 31.0313 119.528 31.4233C120.074 31.8068 120.764 31.9986 121.599 31.9986Z" fill="#E69616"/>
<path d="M144.195 35.7699C142.184 35.7699 140.453 35.3438 139.005 34.4915C137.564 33.6307 136.456 32.4375 135.681 30.9119C134.914 29.3864 134.53 27.6307 134.53 25.6449C134.53 23.6335 134.918 21.8693 135.694 20.3523C136.478 18.8267 137.59 17.6378 139.03 16.7855C140.471 15.9247 142.184 15.4943 144.169 15.4943C145.882 15.4943 147.382 15.8054 148.669 16.4276C149.956 17.0497 150.975 17.9233 151.725 19.0483C152.475 20.1733 152.888 21.4943 152.965 23.0114H147.826C147.681 22.0312 147.297 21.2429 146.675 20.6463C146.061 20.0412 145.256 19.7386 144.259 19.7386C143.415 19.7386 142.678 19.9688 142.047 20.429C141.425 20.8807 140.939 21.5412 140.59 22.4105C140.24 23.2798 140.066 24.3324 140.066 25.5682C140.066 26.821 140.236 27.8864 140.577 28.7642C140.926 29.642 141.417 30.3111 142.047 30.7713C142.678 31.2315 143.415 31.4616 144.259 31.4616C144.881 31.4616 145.439 31.3338 145.934 31.0781C146.436 30.8224 146.85 30.4517 147.174 29.9659C147.506 29.4716 147.723 28.8793 147.826 28.1889H152.965C152.88 29.6889 152.471 31.0099 151.738 32.152C151.013 33.2855 150.012 34.1719 148.733 34.8111C147.455 35.4503 145.942 35.7699 144.195 35.7699Z" fill="#E69616"/>
<path d="M162.051 35.7571C160.798 35.7571 159.682 35.5398 158.702 35.1051C157.722 34.6619 156.946 34.0099 156.375 33.1492C155.812 32.2798 155.531 31.1974 155.531 29.902C155.531 28.8111 155.732 27.8949 156.132 27.1534C156.533 26.4119 157.078 25.8153 157.768 25.3636C158.459 24.9119 159.243 24.571 160.121 24.3409C161.007 24.1108 161.936 23.9489 162.908 23.8551C164.05 23.7358 164.97 23.625 165.669 23.5227C166.368 23.4119 166.875 23.25 167.19 23.0369C167.506 22.8239 167.663 22.5085 167.663 22.0909V22.0142C167.663 21.2045 167.408 20.5781 166.896 20.1349C166.393 19.6918 165.678 19.4702 164.749 19.4702C163.768 19.4702 162.989 19.6875 162.409 20.1222C161.83 20.5483 161.446 21.0852 161.259 21.733L156.222 21.3239C156.477 20.1307 156.98 19.0994 157.73 18.2301C158.48 17.3523 159.447 16.679 160.632 16.2102C161.825 15.733 163.206 15.4943 164.774 15.4943C165.865 15.4943 166.909 15.6222 167.906 15.8778C168.912 16.1335 169.803 16.5298 170.578 17.0668C171.362 17.6037 171.98 18.294 172.432 19.1378C172.884 19.973 173.109 20.9744 173.109 22.142V35.3864H167.945V32.6634H167.791C167.476 33.277 167.054 33.8182 166.526 34.2869C165.997 34.7472 165.362 35.1094 164.621 35.3736C163.879 35.6293 163.023 35.7571 162.051 35.7571ZM163.611 31.9986C164.412 31.9986 165.119 31.8409 165.733 31.5256C166.347 31.2017 166.828 30.767 167.178 30.2216C167.527 29.6761 167.702 29.0582 167.702 28.3679V26.2841C167.531 26.3949 167.297 26.4972 166.999 26.5909C166.709 26.6761 166.381 26.7571 166.014 26.8338C165.648 26.902 165.281 26.9659 164.915 27.0256C164.548 27.0767 164.216 27.1236 163.918 27.1662C163.278 27.2599 162.72 27.4091 162.243 27.6136C161.766 27.8182 161.395 28.0952 161.131 28.4446C160.866 28.7855 160.734 29.2116 160.734 29.723C160.734 30.4645 161.003 31.0313 161.54 31.4233C162.085 31.8068 162.776 31.9986 163.611 31.9986Z" fill="#E69616"/>
<path d="M186.207 35.7699C184.195 35.7699 182.465 35.3438 181.016 34.4915C179.576 33.6307 178.468 32.4375 177.692 30.9119C176.925 29.3864 176.542 27.6307 176.542 25.6449C176.542 23.6335 176.93 21.8693 177.705 20.3523C178.489 18.8267 179.602 17.6378 181.042 16.7855C182.482 15.9247 184.195 15.4943 186.181 15.4943C187.894 15.4943 189.394 15.8054 190.681 16.4276C191.968 17.0497 192.987 17.9233 193.737 19.0483C194.487 20.1733 194.9 21.4943 194.977 23.0114H189.837C189.692 22.0312 189.309 21.2429 188.687 20.6463C188.073 20.0412 187.268 19.7386 186.271 19.7386C185.427 19.7386 184.69 19.9688 184.059 20.429C183.437 20.8807 182.951 21.5412 182.602 22.4105C182.252 23.2798 182.077 24.3324 182.077 25.5682C182.077 26.821 182.248 27.8864 182.589 28.7642C182.938 29.642 183.428 30.3111 184.059 30.7713C184.69 31.2315 185.427 31.4616 186.271 31.4616C186.893 31.4616 187.451 31.3338 187.945 31.0781C188.448 30.8224 188.862 30.4517 189.185 29.9659C189.518 29.4716 189.735 28.8793 189.837 28.1889H194.977C194.891 29.6889 194.482 31.0099 193.749 32.152C193.025 33.2855 192.023 34.1719 190.745 34.8111C189.467 35.4503 187.954 35.7699 186.207 35.7699Z" fill="#E69616"/>
<path d="M203.909 24.0341V35.3864H198.463V9.20455H203.756V19.2145H203.986C204.429 18.0554 205.145 17.1477 206.134 16.4915C207.123 15.8267 208.363 15.4943 209.854 15.4943C211.218 15.4943 212.407 15.7926 213.421 16.3892C214.444 16.9773 215.236 17.8253 215.799 18.9332C216.37 20.0327 216.651 21.3494 216.642 22.8835V35.3864H211.196V23.8551C211.205 22.6449 210.898 21.7031 210.276 21.0298C209.662 20.3565 208.801 20.0199 207.694 20.0199C206.952 20.0199 206.296 20.1776 205.725 20.4929C205.162 20.8082 204.719 21.2685 204.395 21.8736C204.08 22.4702 203.918 23.1903 203.909 24.0341Z" fill="#E69616"/>
<path d="M229.877 35.7699C227.857 35.7699 226.119 35.3608 224.661 34.5426C223.212 33.7159 222.096 32.5483 221.312 31.0398C220.528 29.5227 220.136 27.7287 220.136 25.6577C220.136 23.6378 220.528 21.8651 221.312 20.3395C222.096 18.8139 223.2 17.625 224.623 16.7727C226.055 15.9205 227.734 15.4943 229.66 15.4943C230.955 15.4943 232.161 15.7031 233.278 16.1207C234.403 16.5298 235.383 17.1477 236.218 17.9744C237.062 18.8011 237.718 19.8409 238.187 21.0938C238.656 22.3381 238.89 23.7955 238.89 25.4659V26.9616H222.309V23.5866H233.763C233.763 22.8026 233.593 22.108 233.252 21.5028C232.911 20.8977 232.438 20.4247 231.833 20.0838C231.237 19.7344 230.542 19.5597 229.749 19.5597C228.923 19.5597 228.19 19.7514 227.55 20.1349C226.92 20.5099 226.425 21.017 226.067 21.6562C225.71 22.2869 225.526 22.9901 225.518 23.7656V26.9744C225.518 27.946 225.697 28.7855 226.055 29.4929C226.421 30.2003 226.937 30.7457 227.602 31.1293C228.266 31.5128 229.055 31.7045 229.967 31.7045C230.572 31.7045 231.126 31.6193 231.629 31.4489C232.131 31.2784 232.562 31.0227 232.92 30.6818C233.278 30.3409 233.55 29.9233 233.738 29.429L238.775 29.7614C238.519 30.9716 237.995 32.0284 237.202 32.9318C236.418 33.8267 235.404 34.5256 234.16 35.0284C232.924 35.5227 231.496 35.7699 229.877 35.7699Z" fill="#E69616"/>
<path d="M242.444 35.3864V15.75H247.724V19.1761H247.928C248.286 17.9574 248.887 17.0369 249.731 16.4148C250.575 15.7841 251.546 15.4688 252.646 15.4688C252.918 15.4688 253.212 15.4858 253.528 15.5199C253.843 15.554 254.12 15.6009 254.359 15.6605V20.4929C254.103 20.4162 253.749 20.348 253.298 20.2884C252.846 20.2287 252.433 20.1989 252.058 20.1989C251.256 20.1989 250.54 20.3736 249.91 20.723C249.288 21.0639 248.793 21.5412 248.427 22.1548C248.069 22.7685 247.89 23.4759 247.89 24.277V35.3864H242.444Z" fill="#E69616"/>
<path d="M257.174 35.3864V15.75H262.62V35.3864H257.174ZM259.91 13.2188C259.1 13.2188 258.406 12.9503 257.826 12.4134C257.255 11.8679 256.97 11.2159 256.97 10.4574C256.97 9.70739 257.255 9.06392 257.826 8.52699C258.406 7.98153 259.1 7.70881 259.91 7.70881C260.72 7.70881 261.41 7.98153 261.981 8.52699C262.561 9.06392 262.85 9.70739 262.85 10.4574C262.85 11.2159 262.561 11.8679 261.981 12.4134C261.41 12.9503 260.72 13.2188 259.91 13.2188Z" fill="#E69616"/>
</svg>
