<svg width="25" height="24" viewBox="0 0 25 24" fill="none" xmlns="http://www.w3.org/2000/svg">
<path d="M12.0417 2.16221C8.82645 2.16221 8.44563 2.1744 7.17589 2.23213C6.00184 2.28553 5.36424 2.48102 4.93988 2.64531C4.37785 2.863 3.97667 3.12308 3.55532 3.54297C3.13396 3.96287 2.87298 4.36266 2.65458 4.92274C2.48968 5.34564 2.29351 5.98103 2.23992 7.15097C2.18199 8.41637 2.16975 8.79587 2.16975 12C2.16975 15.2042 2.18199 15.5837 2.23992 16.849C2.29351 18.019 2.48968 18.6544 2.65458 19.0773C2.87298 19.6374 3.13396 20.0372 3.55532 20.4571C3.97667 20.877 4.37785 21.137 4.93988 21.3547C5.36424 21.519 6.00184 21.7145 7.17589 21.7679C8.44544 21.8256 8.82626 21.8378 12.0417 21.8378C15.2572 21.8378 15.638 21.8256 16.9076 21.7679C18.0816 21.7145 18.7192 21.519 19.1435 21.3547C19.7056 21.137 20.1068 20.877 20.5281 20.4571C20.9495 20.0372 21.2105 19.6374 21.4289 19.0773C21.5938 18.6544 21.79 18.019 21.8435 16.8491C21.9015 15.5837 21.9137 15.2042 21.9137 12C21.9137 8.79587 21.9015 8.41637 21.8435 7.15102C21.79 5.98103 21.5938 5.34564 21.4289 4.92274C21.2105 4.36266 20.9495 3.96287 20.5281 3.54297C20.1068 3.12308 19.7056 2.863 19.1435 2.64531C18.7192 2.48102 18.0816 2.28553 16.9076 2.23213C15.6378 2.1744 15.257 2.16221 12.0417 2.16221ZM12.0417 0C15.3121 0 15.7221 0.0138139 17.0065 0.0722133C18.2882 0.130517 19.1635 0.333343 19.9295 0.630008C20.7214 0.936676 21.3929 1.347 22.0623 2.01411C22.7317 2.68123 23.1435 3.35044 23.4512 4.13954C23.7489 4.90288 23.9525 5.77516 24.011 7.05246C24.0696 8.33234 24.0834 8.741 24.0834 12C24.0834 15.2591 24.0696 15.6677 24.011 16.9476C23.9525 18.2249 23.7489 19.0972 23.4512 19.8605C23.1435 20.6496 22.7317 21.3188 22.0623 21.9859C21.3929 22.6531 20.7214 23.0634 19.9295 23.37C19.1635 23.6667 18.2882 23.8695 17.0065 23.9278C15.7221 23.9862 15.3121 24 12.0417 24C8.77139 24 8.36132 23.9862 7.07699 23.9278C5.79525 23.8695 4.91994 23.6667 4.15396 23.37C3.36211 23.0634 2.69058 22.6531 2.02115 21.9859C1.35171 21.3188 0.939969 20.6496 0.632236 19.8605C0.334541 19.0972 0.131011 18.2249 0.0725044 16.9476C0.0139023 15.6677 4.00543e-05 15.2591 4.00543e-05 12C4.00543e-05 8.741 0.0139023 8.33234 0.0725044 7.05246C0.131011 5.77516 0.334541 4.90288 0.632236 4.13954C0.939969 3.35044 1.35171 2.68123 2.02115 2.01411C2.69058 1.347 3.36211 0.936676 4.15396 0.630008C4.91994 0.333343 5.79525 0.130517 7.07699 0.0722133C8.36132 0.0138139 8.77139 0 12.0417 0ZM12.0417 5.83784C15.4568 5.83784 18.2253 8.59676 18.2253 12C18.2253 15.4033 15.4568 18.1622 12.0417 18.1622C8.62665 18.1622 5.85815 15.4033 5.85815 12C5.85815 8.59676 8.62665 5.83784 12.0417 5.83784ZM12.0417 16C14.2585 16 16.0556 14.2091 16.0556 12C16.0556 9.7909 14.2585 8 12.0417 8C9.82493 8 8.02782 9.7909 8.02782 12C8.02782 14.2091 9.82493 16 12.0417 16ZM4.16887 5.59438C4.16887 6.38968 4.81579 7.03441 5.61385 7.03441C6.41191 7.03441 7.05888 6.38968 7.05888 5.59438C7.05888 4.79909 6.41191 4.15441 5.61385 4.15441C4.81579 4.15441 4.16887 4.79909 4.16887 5.59438Z" fill="#141414"/>
</svg>
