<svg width="40" height="40" viewBox="0 0 40 40" fill="none" xmlns="http://www.w3.org/2000/svg">
<path d="M20 3.60368C14.6598 3.60368 14.0273 3.624 11.9184 3.72022C9.96838 3.80922 8.9094 4.13503 8.20457 4.40885C7.2711 4.77166 6.60478 5.20513 5.90496 5.90496C5.20513 6.60478 4.77167 7.2711 4.40893 8.20457C4.13504 8.9094 3.80922 9.96838 3.72022 11.9183C3.624 14.0273 3.60368 14.6598 3.60368 20C3.60368 25.3403 3.624 25.9728 3.72022 28.0817C3.80922 30.0317 4.13504 31.0907 4.40893 31.7955C4.77167 32.729 5.20513 33.3953 5.90496 34.0951C6.60478 34.7949 7.2711 35.2284 8.20457 35.5911C8.9094 35.865 9.96838 36.1909 11.9184 36.2799C14.027 36.3761 14.6595 36.3964 20 36.3964C25.3406 36.3964 25.9731 36.3761 28.0817 36.2799C30.0317 36.1909 31.0907 35.865 31.7954 35.5911C32.729 35.2284 33.3953 34.7949 34.0951 34.0951C34.7949 33.3953 35.2284 32.729 35.5911 31.7955C35.865 31.0907 36.1909 30.0317 36.2799 28.0818C36.3761 25.9728 36.3964 25.3403 36.3964 20C36.3964 14.6598 36.3761 14.0273 36.2799 11.9184C36.1909 9.96838 35.865 8.9094 35.5911 8.20457C35.2284 7.2711 34.7949 6.60478 34.0951 5.90496C33.3953 5.20513 32.729 4.77166 31.7954 4.40885C31.0907 4.13503 30.0317 3.80922 28.0818 3.72022C25.9728 3.624 25.3403 3.60368 20 3.60368ZM20 0C25.4318 0 26.1128 0.0230231 28.246 0.120355C30.3748 0.217529 31.8286 0.555572 33.1008 1.05001C34.416 1.56113 35.5314 2.24499 36.6432 3.35685C37.7551 4.46871 38.439 5.58406 38.9501 6.89924C39.4445 8.17147 39.7826 9.62526 39.8797 11.7541C39.9771 13.8872 40 14.5683 40 20C40 25.4318 39.9771 26.1128 39.8797 28.246C39.7826 30.3748 39.4445 31.8286 38.9501 33.1008C38.439 34.4159 37.7551 35.5314 36.6432 36.6432C35.5314 37.7551 34.416 38.439 33.1008 38.9501C31.8286 39.4445 30.3748 39.7826 28.246 39.8797C26.1128 39.9771 25.4318 40 20 40C14.5683 40 13.8872 39.9771 11.7541 39.8797C9.62526 39.7826 8.17147 39.4445 6.89924 38.9501C5.58406 38.439 4.46871 37.7551 3.35685 36.6432C2.24499 35.5314 1.56113 34.416 1.05001 33.1008C0.555573 31.8286 0.21753 30.3748 0.120356 28.246C0.0230237 26.1128 0 25.4318 0 20C0 14.5683 0.0230237 13.8872 0.120356 11.7541C0.21753 9.62526 0.555573 8.17147 1.05001 6.89924C1.56113 5.58406 2.24499 4.46871 3.35685 3.35685C4.46871 2.24499 5.58406 1.56113 6.89924 1.05001C8.17147 0.555572 9.62526 0.217529 11.7541 0.120355C13.8872 0.0230231 14.5683 0 20 0ZM20 9.72974C25.6721 9.72974 30.2703 14.3279 30.2703 20C30.2703 25.6721 25.6721 30.2703 20 30.2703C14.3279 30.2703 9.72974 25.6721 9.72974 20C9.72974 14.3279 14.3279 9.72974 20 9.72974ZM20 26.6667C23.6819 26.6667 26.6667 23.6819 26.6667 20C26.6667 16.3182 23.6819 13.3333 20 13.3333C16.3182 13.3333 13.3333 16.3182 13.3333 20C13.3333 23.6819 16.3182 26.6667 20 26.6667ZM6.92401 9.32397C6.92401 10.6495 7.99848 11.724 9.32397 11.724C10.6495 11.724 11.724 10.6495 11.724 9.32397C11.724 7.99848 10.6495 6.92401 9.32397 6.92401C7.99848 6.92401 6.92401 7.99848 6.92401 9.32397Z" fill="#141414"/>
</svg>
