<svg width="40" height="40" viewBox="0 0 40 40" fill="none" xmlns="http://www.w3.org/2000/svg">
<g clip-path="url(#clip0_24_93)">
<rect width="40" height="40" fill="#F0F0F0"/>
<mask id="mask0_24_93" style="mask-type:alpha" maskUnits="userSpaceOnUse" x="0" y="0" width="40" height="40">
<rect width="40" height="40" fill="#D9D9D9"/>
</mask>
<g mask="url(#mask0_24_93)">
<path d="M20 20.0002C20.9167 20.0002 21.7014 19.6738 22.3542 19.021C23.007 18.3682 23.3334 17.5835 23.3334 16.6668C23.3334 15.7502 23.007 14.9654 22.3542 14.3127C21.7014 13.6599 20.9167 13.3335 20 13.3335C19.0834 13.3335 18.2986 13.6599 17.6459 14.3127C16.9931 14.9654 16.6667 15.7502 16.6667 16.6668C16.6667 17.5835 16.9931 18.3682 17.6459 19.021C18.2986 19.6738 19.0834 20.0002 20 20.0002ZM20 32.2502C23.3889 29.1391 25.9028 26.3127 27.5417 23.771C29.1806 21.2293 30 18.9724 30 17.0002C30 13.9724 29.0347 11.4932 27.1042 9.56266C25.1736 7.63211 22.8056 6.66683 20 6.66683C17.1945 6.66683 14.8264 7.63211 12.8959 9.56266C10.9653 11.4932 10 13.9724 10 17.0002C10 18.9724 10.8195 21.2293 12.4584 23.771C14.0972 26.3127 16.6111 29.1391 20 32.2502ZM20 36.6668C15.5278 32.8613 12.1875 29.3266 9.97919 26.0627C7.77085 22.7988 6.66669 19.7779 6.66669 17.0002C6.66669 12.8335 8.00696 9.51405 10.6875 7.04183C13.3681 4.56961 16.4722 3.3335 20 3.3335C23.5278 3.3335 26.632 4.56961 29.3125 7.04183C31.9931 9.51405 33.3334 12.8335 33.3334 17.0002C33.3334 19.7779 32.2292 22.7988 30.0209 26.0627C27.8125 29.3266 24.4722 32.8613 20 36.6668Z" fill="#525252"/>
</g>
</g>
<defs>
<clipPath id="clip0_24_93">
<rect width="40" height="40" fill="white"/>
</clipPath>
</defs>
</svg>
