<svg width="40" height="37" viewBox="0 0 40 37" fill="none" xmlns="http://www.w3.org/2000/svg">
<rect width="40" height="37" fill="#F0F0F0"/>
<mask id="mask0_24_93" style="mask-type:alpha" maskUnits="userSpaceOnUse" x="3" y="0" width="34" height="34">
<rect x="3" width="34" height="34" fill="#D9D9D9"/>
</mask>
<g mask="url(#mask0_24_93)">
<path d="M20.3333 19.1667C21.1125 19.1667 21.7795 18.8892 22.3344 18.3344C22.8892 17.7795 23.1667 17.1125 23.1667 16.3333C23.1667 15.5542 22.8892 14.8872 22.3344 14.3323C21.7795 13.7774 21.1125 13.5 20.3333 13.5C19.5542 13.5 18.8872 13.7774 18.3323 14.3323C17.7774 14.8872 17.5 15.5542 17.5 16.3333C17.5 17.1125 17.7774 17.7795 18.3323 18.3344C18.8872 18.8892 19.5542 19.1667 20.3333 19.1667ZM20.3333 29.5792C23.2139 26.9347 25.3507 24.5323 26.7438 22.3719C28.1368 20.2115 28.8333 18.2931 28.8333 16.6167C28.8333 14.0431 28.0128 11.9358 26.3719 10.2948C24.7309 8.65382 22.7181 7.83333 20.3333 7.83333C17.9486 7.83333 15.9358 8.65382 14.2948 10.2948C12.6538 11.9358 11.8333 14.0431 11.8333 16.6167C11.8333 18.2931 12.5299 20.2115 13.9229 22.3719C15.316 24.5323 17.4528 26.9347 20.3333 29.5792ZM20.3333 33.3333C16.5319 30.0986 13.6927 27.0941 11.8156 24.3198C9.93854 21.5455 9 18.9778 9 16.6167C9 13.075 10.1392 10.2535 12.4177 8.15208C14.6962 6.05069 17.3347 5 20.3333 5C23.3319 5 25.9705 6.05069 28.249 8.15208C30.5274 10.2535 31.6667 13.075 31.6667 16.6167C31.6667 18.9778 30.7281 21.5455 28.851 24.3198C26.974 27.0941 24.1347 30.0986 20.3333 33.3333Z" fill="#525252"/>
</g>
</svg>
