<svg width="205" height="39" viewBox="0 0 205 39" fill="none" xmlns="http://www.w3.org/2000/svg">
<path d="M7.38068 0.477273V35.3864H0V0.477273H7.38068Z" fill="#141414"/>
<path d="M13.4531 35.3864V0.477273H36.9759V6.5625H20.8338V14.8807H35.7656V20.9659H20.8338V29.3011H37.044V35.3864H13.4531Z" fill="#141414"/>
<path d="M56.0199 23.25H62.2926L65.446 27.3068L68.5483 30.9205L74.3949 38.25H67.5085L63.4858 33.3068L61.4233 30.375L56.0199 23.25ZM74.9233 17.9318C74.9233 21.7386 74.2017 24.9773 72.7585 27.6477C71.3267 30.3182 69.3722 32.358 66.8949 33.767C64.429 35.1648 61.6563 35.8636 58.5767 35.8636C55.4744 35.8636 52.6903 35.1591 50.2244 33.75C47.7585 32.3409 45.8097 30.3011 44.3778 27.6307C42.946 24.9602 42.2301 21.7273 42.2301 17.9318C42.2301 14.125 42.946 10.8864 44.3778 8.21591C45.8097 5.54545 47.7585 3.51136 50.2244 2.11364C52.6903 0.704546 55.4744 0 58.5767 0C61.6563 0 64.429 0.704546 66.8949 2.11364C69.3722 3.51136 71.3267 5.54545 72.7585 8.21591C74.2017 10.8864 74.9233 14.125 74.9233 17.9318ZM67.4403 17.9318C67.4403 15.4659 67.071 13.3864 66.3324 11.6932C65.6051 10 64.5767 8.71591 63.2472 7.84091C61.9176 6.96591 60.3608 6.52841 58.5767 6.52841C56.7926 6.52841 55.2358 6.96591 53.9062 7.84091C52.5767 8.71591 51.5426 10 50.804 11.6932C50.0767 13.3864 49.7131 15.4659 49.7131 17.9318C49.7131 20.3977 50.0767 22.4773 50.804 24.1705C51.5426 25.8636 52.5767 27.1477 53.9062 28.0227C55.2358 28.8977 56.7926 29.3352 58.5767 29.3352C60.3608 29.3352 61.9176 28.8977 63.2472 28.0227C64.5767 27.1477 65.6051 25.8636 66.3324 24.1705C67.071 22.4773 67.4403 20.3977 67.4403 17.9318Z" fill="#141414"/>
<path d="M89.983 35.3864V17.9318H96.9716C98.2557 17.9318 99.3267 18.1222 100.185 18.5028C101.043 18.8835 101.687 19.4119 102.119 20.0881C102.551 20.7585 102.767 21.5313 102.767 22.4063C102.767 23.0881 102.631 23.6875 102.358 24.2045C102.085 24.7159 101.71 25.1364 101.233 25.4659C100.761 25.7898 100.222 26.0199 99.6136 26.1562V26.3267C100.278 26.3551 100.901 26.5426 101.48 26.8892C102.065 27.2358 102.54 27.7216 102.903 28.3466C103.267 28.9659 103.449 29.7045 103.449 30.5625C103.449 31.4886 103.219 32.3153 102.759 33.0426C102.304 33.7642 101.631 34.3352 100.739 34.7557C99.8466 35.1761 98.7472 35.3864 97.4403 35.3864H89.983ZM93.6733 32.3693H96.6818C97.7102 32.3693 98.4602 32.1733 98.9318 31.7813C99.4034 31.3835 99.6392 30.8551 99.6392 30.196C99.6392 29.7131 99.5227 29.2869 99.2898 28.9176C99.0568 28.5483 98.7244 28.2585 98.2926 28.0483C97.8665 27.8381 97.358 27.733 96.767 27.733H93.6733V32.3693ZM93.6733 25.2358H96.4091C96.9148 25.2358 97.3636 25.1477 97.7557 24.9716C98.1534 24.7898 98.4659 24.5341 98.6932 24.2045C98.9261 23.875 99.0426 23.4801 99.0426 23.0199C99.0426 22.3892 98.8182 21.8807 98.3693 21.4943C97.9261 21.108 97.2955 20.9148 96.4773 20.9148H93.6733V25.2358Z" fill="#141414"/>
<path d="M109.515 35.6335C108.68 35.6335 107.935 35.4886 107.282 35.1989C106.629 34.9034 106.112 34.4687 105.731 33.8949C105.356 33.3153 105.168 32.5938 105.168 31.7301C105.168 31.0028 105.302 30.392 105.569 29.8977C105.836 29.4034 106.2 29.0057 106.66 28.7045C107.12 28.4034 107.643 28.1761 108.228 28.0227C108.819 27.8693 109.438 27.7614 110.086 27.6989C110.847 27.6193 111.461 27.5455 111.927 27.4773C112.393 27.4034 112.731 27.2955 112.941 27.1534C113.151 27.0114 113.256 26.8011 113.256 26.5227V26.4716C113.256 25.9318 113.086 25.5142 112.745 25.2188C112.41 24.9233 111.933 24.7756 111.313 24.7756C110.66 24.7756 110.14 24.9205 109.754 25.2102C109.367 25.4943 109.112 25.8523 108.987 26.2841L105.629 26.0114C105.799 25.2159 106.134 24.5284 106.634 23.9489C107.134 23.3636 107.779 22.9148 108.569 22.6023C109.364 22.2841 110.285 22.125 111.33 22.125C112.058 22.125 112.754 22.2102 113.418 22.3807C114.089 22.5511 114.683 22.8153 115.2 23.1733C115.722 23.5313 116.134 23.9915 116.435 24.554C116.737 25.1108 116.887 25.7784 116.887 26.5568V35.3864H113.444V33.571H113.342C113.131 33.9801 112.85 34.3409 112.498 34.6534C112.146 34.9602 111.722 35.2017 111.228 35.3778C110.734 35.5483 110.163 35.6335 109.515 35.6335ZM110.555 33.1278C111.089 33.1278 111.56 33.0227 111.969 32.8125C112.379 32.5966 112.7 32.3068 112.933 31.9432C113.165 31.5795 113.282 31.1676 113.282 30.7074V29.3182C113.168 29.392 113.012 29.4602 112.813 29.5227C112.62 29.5795 112.401 29.6335 112.157 29.6847C111.913 29.7301 111.668 29.7727 111.424 29.8125C111.18 29.8466 110.958 29.8778 110.759 29.9063C110.333 29.9688 109.961 30.0682 109.643 30.2045C109.325 30.3409 109.077 30.5256 108.901 30.7585C108.725 30.9858 108.637 31.2699 108.637 31.6108C108.637 32.1051 108.816 32.483 109.174 32.7443C109.538 33 109.998 33.1278 110.555 33.1278Z" fill="#141414"/>
<path d="M125.619 35.642C124.278 35.642 123.124 35.358 122.158 34.7898C121.198 34.2159 120.46 33.4205 119.942 32.4034C119.431 31.3864 119.175 30.2159 119.175 28.892C119.175 27.5511 119.434 26.375 119.951 25.3636C120.474 24.3466 121.215 23.554 122.175 22.9858C123.136 22.4119 124.278 22.125 125.602 22.125C126.744 22.125 127.744 22.3324 128.602 22.7472C129.46 23.1619 130.138 23.7443 130.638 24.4943C131.138 25.2443 131.414 26.125 131.465 27.1364H128.039C127.942 26.483 127.687 25.9574 127.272 25.5597C126.863 25.1563 126.326 24.9545 125.661 24.9545C125.099 24.9545 124.607 25.108 124.187 25.4148C123.772 25.7159 123.448 26.1563 123.215 26.7358C122.982 27.3153 122.866 28.017 122.866 28.8409C122.866 29.6761 122.979 30.3864 123.207 30.9716C123.44 31.5568 123.766 32.0028 124.187 32.3097C124.607 32.6165 125.099 32.7699 125.661 32.7699C126.076 32.7699 126.448 32.6847 126.778 32.5142C127.113 32.3438 127.388 32.0966 127.604 31.7727C127.826 31.4432 127.971 31.0483 128.039 30.5881H131.465C131.408 31.5881 131.136 32.4688 130.647 33.2301C130.164 33.9858 129.496 34.5767 128.644 35.0028C127.792 35.429 126.783 35.642 125.619 35.642Z" fill="#141414"/>
<path d="M137.523 35.6335C136.687 35.6335 135.943 35.4886 135.29 35.1989C134.636 34.9034 134.119 34.4687 133.739 33.8949C133.364 33.3153 133.176 32.5938 133.176 31.7301C133.176 31.0028 133.31 30.392 133.577 29.8977C133.844 29.4034 134.207 29.0057 134.668 28.7045C135.128 28.4034 135.651 28.1761 136.236 28.0227C136.827 27.8693 137.446 27.7614 138.094 27.6989C138.855 27.6193 139.469 27.5455 139.935 27.4773C140.401 27.4034 140.739 27.2955 140.949 27.1534C141.159 27.0114 141.264 26.8011 141.264 26.5227V26.4716C141.264 25.9318 141.094 25.5142 140.753 25.2188C140.418 24.9233 139.94 24.7756 139.321 24.7756C138.668 24.7756 138.148 24.9205 137.761 25.2102C137.375 25.4943 137.119 25.8523 136.994 26.2841L133.636 26.0114C133.807 25.2159 134.142 24.5284 134.642 23.9489C135.142 23.3636 135.787 22.9148 136.577 22.6023C137.372 22.2841 138.293 22.125 139.338 22.125C140.065 22.125 140.761 22.2102 141.426 22.3807C142.097 22.5511 142.69 22.8153 143.207 23.1733C143.73 23.5313 144.142 23.9915 144.443 24.554C144.744 25.1108 144.895 25.7784 144.895 26.5568V35.3864H141.452V33.571H141.349C141.139 33.9801 140.858 34.3409 140.506 34.6534C140.153 34.9602 139.73 35.2017 139.236 35.3778C138.741 35.5483 138.17 35.6335 137.523 35.6335ZM138.562 33.1278C139.097 33.1278 139.568 33.0227 139.977 32.8125C140.386 32.5966 140.707 32.3068 140.94 31.9432C141.173 31.5795 141.29 31.1676 141.29 30.7074V29.3182C141.176 29.392 141.02 29.4602 140.821 29.5227C140.628 29.5795 140.409 29.6335 140.165 29.6847C139.92 29.7301 139.676 29.7727 139.432 29.8125C139.188 29.8466 138.966 29.8778 138.767 29.9063C138.341 29.9688 137.969 30.0682 137.651 30.2045C137.332 30.3409 137.085 30.5256 136.909 30.7585C136.733 30.9858 136.645 31.2699 136.645 31.6108C136.645 32.1051 136.824 32.483 137.182 32.7443C137.545 33 138.006 33.1278 138.562 33.1278Z" fill="#141414"/>
<path d="M153.626 35.642C152.286 35.642 151.132 35.358 150.166 34.7898C149.206 34.2159 148.467 33.4205 147.95 32.4034C147.439 31.3864 147.183 30.2159 147.183 28.892C147.183 27.5511 147.442 26.375 147.959 25.3636C148.482 24.3466 149.223 23.554 150.183 22.9858C151.143 22.4119 152.286 22.125 153.609 22.125C154.751 22.125 155.751 22.3324 156.609 22.7472C157.467 23.1619 158.146 23.7443 158.646 24.4943C159.146 25.2443 159.422 26.125 159.473 27.1364H156.047C155.95 26.483 155.695 25.9574 155.28 25.5597C154.871 25.1563 154.334 24.9545 153.669 24.9545C153.107 24.9545 152.615 25.108 152.195 25.4148C151.78 25.7159 151.456 26.1563 151.223 26.7358C150.99 27.3153 150.874 28.017 150.874 28.8409C150.874 29.6761 150.987 30.3864 151.214 30.9716C151.447 31.5568 151.774 32.0028 152.195 32.3097C152.615 32.6165 153.107 32.7699 153.669 32.7699C154.084 32.7699 154.456 32.6847 154.786 32.5142C155.121 32.3438 155.396 32.0966 155.612 31.7727C155.834 31.4432 155.979 31.0483 156.047 30.5881H159.473C159.416 31.5881 159.143 32.4688 158.655 33.2301C158.172 33.9858 157.504 34.5767 156.652 35.0028C155.8 35.429 154.791 35.642 153.626 35.642Z" fill="#141414"/>
<path d="M165.428 27.8182V35.3864H161.798V17.9318H165.326V24.6051H165.479C165.775 23.8324 166.252 23.2273 166.911 22.7898C167.57 22.3466 168.397 22.125 169.391 22.125C170.3 22.125 171.093 22.3239 171.769 22.7216C172.451 23.1136 172.979 23.679 173.354 24.4176C173.735 25.1506 173.923 26.0284 173.917 27.0511V35.3864H170.286V27.6989C170.292 26.892 170.087 26.2642 169.673 25.8153C169.264 25.3665 168.69 25.142 167.951 25.142C167.457 25.142 167.019 25.2472 166.638 25.4574C166.263 25.6676 165.968 25.9744 165.752 26.3778C165.542 26.7756 165.434 27.2557 165.428 27.8182Z" fill="#141414"/>
<path d="M182.74 35.642C181.393 35.642 180.234 35.3693 179.263 34.8239C178.297 34.2727 177.553 33.4943 177.03 32.4886C176.507 31.4773 176.246 30.2813 176.246 28.9006C176.246 27.554 176.507 26.3722 177.03 25.3551C177.553 24.3381 178.288 23.5455 179.237 22.9773C180.192 22.4091 181.311 22.125 182.595 22.125C183.459 22.125 184.263 22.2642 185.007 22.5426C185.757 22.8153 186.411 23.2273 186.967 23.7784C187.53 24.3295 187.967 25.0227 188.28 25.858C188.592 26.6875 188.749 27.6591 188.749 28.7727V29.7699H177.695V27.5199H185.331C185.331 26.9972 185.217 26.5341 184.99 26.1307C184.763 25.7273 184.447 25.4119 184.044 25.1847C183.646 24.9517 183.183 24.8352 182.655 24.8352C182.104 24.8352 181.615 24.9631 181.189 25.2188C180.768 25.4688 180.439 25.8068 180.2 26.233C179.962 26.6534 179.839 27.1222 179.834 27.6392V29.7784C179.834 30.4261 179.953 30.9858 180.192 31.4574C180.436 31.929 180.78 32.2926 181.223 32.5483C181.666 32.804 182.192 32.9318 182.8 32.9318C183.203 32.9318 183.572 32.875 183.908 32.7614C184.243 32.6477 184.53 32.4773 184.768 32.25C185.007 32.0227 185.189 31.7443 185.314 31.4148L188.672 31.6364C188.501 32.4432 188.152 33.1477 187.624 33.75C187.101 34.3466 186.425 34.8125 185.595 35.1477C184.771 35.4773 183.82 35.642 182.74 35.642Z" fill="#141414"/>
<path d="M191.118 35.3864V22.2955H194.638V24.5795H194.774C195.013 23.767 195.413 23.1534 195.976 22.7386C196.538 22.3182 197.186 22.108 197.919 22.108C198.101 22.108 198.297 22.1193 198.507 22.142C198.717 22.1648 198.902 22.196 199.061 22.2358V25.4574C198.891 25.4063 198.655 25.3608 198.354 25.321C198.053 25.2813 197.777 25.2614 197.527 25.2614C196.993 25.2614 196.516 25.3778 196.095 25.6108C195.68 25.8381 195.351 26.1563 195.107 26.5653C194.868 26.9744 194.749 27.446 194.749 27.9801V35.3864H191.118Z" fill="#141414"/>
<path d="M200.938 35.3864V22.2955H204.569V35.3864H200.938ZM202.762 20.608C202.222 20.608 201.759 20.429 201.373 20.071C200.992 19.7074 200.802 19.2727 200.802 18.767C200.802 18.267 200.992 17.8381 201.373 17.4801C201.759 17.1165 202.222 16.9347 202.762 16.9347C203.302 16.9347 203.762 17.1165 204.143 17.4801C204.529 17.8381 204.722 18.267 204.722 18.767C204.722 19.2727 204.529 19.7074 204.143 20.071C203.762 20.429 203.302 20.608 202.762 20.608Z" fill="#141414"/>
</svg>
