<svg width="75" height="39" viewBox="0 0 75 39" fill="none" xmlns="http://www.w3.org/2000/svg">
<path d="M7.38068 0.477273V35.3864H0V0.477273H7.38068Z" fill="white"/>
<path d="M13.4531 35.3864V0.477273H36.9759V6.5625H20.8338V14.8807H35.7656V20.9659H20.8338V29.3011H37.044V35.3864H13.4531Z" fill="white"/>
<path d="M56.0199 23.25H62.2926L65.446 27.3068L68.5483 30.9205L74.3949 38.25H67.5085L63.4858 33.3068L61.4233 30.375L56.0199 23.25ZM74.9233 17.9318C74.9233 21.7386 74.2017 24.9773 72.7585 27.6477C71.3267 30.3182 69.3722 32.358 66.8949 33.767C64.429 35.1648 61.6563 35.8636 58.5767 35.8636C55.4744 35.8636 52.6903 35.1591 50.2244 33.75C47.7585 32.3409 45.8097 30.3011 44.3778 27.6307C42.946 24.9602 42.2301 21.7273 42.2301 17.9318C42.2301 14.125 42.946 10.8864 44.3778 8.21591C45.8097 5.54545 47.7585 3.51136 50.2244 2.11364C52.6903 0.704546 55.4744 0 58.5767 0C61.6563 0 64.429 0.704546 66.8949 2.11364C69.3722 3.51136 71.3267 5.54545 72.7585 8.21591C74.2017 10.8864 74.9233 14.125 74.9233 17.9318ZM67.4403 17.9318C67.4403 15.4659 67.071 13.3864 66.3324 11.6932C65.6051 10 64.5767 8.71591 63.2472 7.84091C61.9176 6.96591 60.3608 6.52841 58.5767 6.52841C56.7926 6.52841 55.2358 6.96591 53.9062 7.84091C52.5767 8.71591 51.5426 10 50.804 11.6932C50.0767 13.3864 49.7131 15.4659 49.7131 17.9318C49.7131 20.3977 50.0767 22.4773 50.804 24.1705C51.5426 25.8636 52.5767 27.1477 53.9062 28.0227C55.2358 28.8977 56.7926 29.3352 58.5767 29.3352C60.3608 29.3352 61.9176 28.8977 63.2472 28.0227C64.5767 27.1477 65.6051 25.8636 66.3324 24.1705C67.071 22.4773 67.4403 20.3977 67.4403 17.9318Z" fill="white"/>
</svg>
