<svg width="40" height="40" viewBox="0 0 40 40" fill="none" xmlns="http://www.w3.org/2000/svg">
<g clip-path="url(#clip0_10_23)">
<rect width="40" height="40" fill="#F0F0F0"/>
<mask id="mask0_10_23" style="mask-type:alpha" maskUnits="userSpaceOnUse" x="0" y="0" width="40" height="40">
<rect width="40" height="40" fill="#D9D9D9"/>
</mask>
<g mask="url(#mask0_10_23)">
<path d="M33.25 37.8382C29.7778 37.8382 26.3472 37.0199 22.9583 35.3832C19.5694 33.7466 16.4861 31.4268 13.7083 28.4238C10.9306 25.4208 8.78472 22.0874 7.27083 18.4238C5.75694 14.7601 5 11.0514 5 7.29765C5 6.75711 5.16667 6.30666 5.5 5.9463C5.83333 5.58594 6.25 5.40576 6.75 5.40576H13.5C13.8889 5.40576 14.2361 5.5484 14.5417 5.83369C14.8472 6.11897 15.0278 6.45681 15.0833 6.8472L16.1667 13.1535C16.2222 13.634 16.2083 14.0394 16.125 14.3697C16.0417 14.7001 15.8889 14.9853 15.6667 15.2256L11.625 19.64C12.1806 20.7511 12.8403 21.8247 13.6042 22.8607C14.3681 23.8968 15.2083 24.8953 16.125 25.8562C16.9861 26.7871 17.8889 27.6505 18.8333 28.4463C19.7778 29.2421 20.7778 29.9703 21.8333 30.631L25.75 26.3968C26 26.1265 26.3264 25.9238 26.7292 25.7886C27.1319 25.6535 27.5278 25.616 27.9167 25.676L33.6667 26.9373C34.0556 27.0574 34.375 27.2751 34.625 27.5904C34.875 27.9058 35 28.2586 35 28.649V35.9463C35 36.4868 34.8333 36.9373 34.5 37.2977C34.1667 37.658 33.75 37.8382 33.25 37.8382ZM10.0417 16.2166L12.7917 13.2436L12.0833 9.00937H8.375C8.51389 10.2406 8.70833 11.4568 8.95833 12.658C9.20833 13.8592 9.56944 15.0454 10.0417 16.2166ZM24.9583 32.3427C26.0417 32.8532 27.1458 33.2586 28.2708 33.5589C29.3958 33.8592 30.5278 34.0544 31.6667 34.1445V30.1805L27.75 29.3247L24.9583 32.3427Z" fill="#525252"/>
</g>
</g>
<defs>
<clipPath id="clip0_10_23">
<rect width="40" height="40" fill="white"/>
</clipPath>
</defs>
</svg>
