<svg width="40" height="37" viewBox="0 0 40 37" fill="none" xmlns="http://www.w3.org/2000/svg">
<rect width="40" height="37" fill="#F0F0F0"/>
<mask id="mask0_10_23" style="mask-type:alpha" maskUnits="userSpaceOnUse" x="3" y="0" width="34" height="34">
<rect x="3" width="34" height="34" fill="#D9D9D9"/>
</mask>
<g mask="url(#mask0_10_23)">
<path d="M31.2625 29.75C28.3111 29.75 25.3951 29.1066 22.5146 27.8198C19.634 26.533 17.0132 24.709 14.6521 22.3479C12.291 19.9868 10.467 17.366 9.18021 14.4854C7.8934 11.6049 7.25 8.68889 7.25 5.7375C7.25 5.3125 7.39167 4.95833 7.675 4.675C7.95833 4.39167 8.3125 4.25 8.7375 4.25H14.475C14.8056 4.25 15.1007 4.36215 15.3604 4.58646C15.6201 4.81076 15.7736 5.07639 15.8208 5.38333L16.7417 10.3417C16.7889 10.7194 16.7771 11.0382 16.7063 11.2979C16.6354 11.5576 16.5056 11.7819 16.3167 11.9708L12.8813 15.4417C13.3535 16.3153 13.9142 17.1594 14.5635 17.974C15.2128 18.7885 15.9271 19.5736 16.7063 20.3292C17.4382 21.0611 18.2056 21.7399 19.0083 22.3656C19.8111 22.9913 20.6611 23.5639 21.5583 24.0833L24.8875 20.7542C25.1 20.5417 25.3774 20.3823 25.7198 20.276C26.0622 20.1698 26.3986 20.1403 26.7292 20.1875L31.6167 21.1792C31.9472 21.2736 32.2187 21.4448 32.4312 21.6927C32.6437 21.9406 32.75 22.2181 32.75 22.525V28.2625C32.75 28.6875 32.6083 29.0417 32.325 29.325C32.0417 29.6083 31.6875 29.75 31.2625 29.75ZM11.5354 12.75L13.8729 10.4125L13.2708 7.08333H10.1188C10.2368 8.05139 10.4021 9.00764 10.6146 9.95208C10.8271 10.8965 11.134 11.8292 11.5354 12.75ZM24.2146 25.4292C25.1354 25.8306 26.074 26.1493 27.0302 26.3854C27.9865 26.6215 28.9486 26.775 29.9167 26.8458V23.7292L26.5875 23.0563L24.2146 25.4292Z" fill="#525252"/>
</g>
</svg>
